<svg xmlns="http://www.w3.org/2000/svg" version="1.1" class="w100 h-auto" width="660" height="400" viewBox="0 0 585 395"><g></g><g class="chart-area" font-family="sans-serif" transform="translate(100, 20)"><g transform="translate(0,300)" fill="none" font-size="10" font-family="sans-serif" text-anchor="middle"><path class="domain" stroke="currentColor" d="M0.5,6V0.5H410.5V6"></path><g class="tick" opacity="1" transform="translate(37.61937842246301,0)"><line stroke="currentColor" y2="6"></line><text fill="currentColor" y="9" dy="0.71em" style="font-size: 12px;">2010</text></g><g class="tick" opacity="1" transform="translate(89.9262641267622,0)"><line stroke="currentColor" y2="6"></line><text fill="currentColor" y="9" dy="0.71em" style="font-size: 12px;">2012</text></g><g class="tick" opacity="1" transform="translate(142.30480309914947,0)"><line stroke="currentColor" y2="6"></line><text fill="currentColor" y="9" dy="0.71em" style="font-size: 12px;">2014</text></g><g class="tick" opacity="1" transform="translate(194.6116888034487,0)"><line stroke="currentColor" y2="6"></line><text fill="currentColor" y="9" dy="0.71em" style="font-size: 12px;">2016</text></g><g class="tick" opacity="1" transform="translate(246.99022777583596,0)"><line stroke="currentColor" y2="6"></line><text fill="currentColor" y="9" dy="0.71em" style="font-size: 12px;">2018</text></g><g class="tick" opacity="1" transform="translate(299.2971134801351,0)"><line stroke="currentColor" y2="6"></line><text fill="currentColor" y="9" dy="0.71em" style="font-size: 12px;">2020</text></g><g class="tick" opacity="1" transform="translate(351.67565245252246,0)"><line stroke="currentColor" y2="6"></line><text fill="currentColor" y="9" dy="0.71em" style="font-size: 12px;">2022</text></g><g class="tick" opacity="1" transform="translate(403.9825381568216,0)"><line stroke="currentColor" y2="6"></line><text fill="currentColor" y="9" dy="0.71em" style="font-size: 12px;">2024</text></g></g><g class="grid-lines" transform="translate(0,300)" fill="none" font-size="10" font-family="sans-serif" text-anchor="middle"><path class="domain" stroke="currentColor" d="M0.5,-300V0.5H410.5V-300"></path><g class="tick" opacity="1" transform="translate(37.61937842246301,0)"><line stroke="currentColor" y2="-300" style="stroke: #ccc; fill: none;"></line></g><g class="tick" opacity="1" transform="translate(89.9262641267622,0)"><line stroke="currentColor" y2="-300" style="stroke: #ccc; fill: none;"></line></g><g class="tick" opacity="1" transform="translate(142.30480309914947,0)"><line stroke="currentColor" y2="-300" style="stroke: #ccc; fill: none;"></line></g><g class="tick" opacity="1" transform="translate(194.6116888034487,0)"><line stroke="currentColor" y2="-300" style="stroke: #ccc; fill: none;"></line></g><g class="tick" opacity="1" transform="translate(246.99022777583596,0)"><line stroke="currentColor" y2="-300" style="stroke: #ccc; fill: none;"></line></g><g class="tick" opacity="1" transform="translate(299.2971134801351,0)"><line stroke="currentColor" y2="-300" style="stroke: #ccc; fill: none;"></line></g><g class="tick" opacity="1" transform="translate(351.67565245252246,0)"><line stroke="currentColor" y2="-300" style="stroke: #ccc; fill: none;"></line></g><g class="tick" opacity="1" transform="translate(403.9825381568216,0)"><line stroke="currentColor" y2="-300" style="stroke: #ccc; fill: none;"></line></g></g><text x="205" y="360" class="axis-label x-axis-label" style="text-anchor: middle; font-weight: bold;">Year</text><g fill="none" font-size="10" font-family="sans-serif" text-anchor="end"><path class="domain" stroke="currentColor" d="M-6,300.5H0.5V0.5H-6"></path><g class="tick" opacity="1" transform="translate(0,300.5)"><line stroke="currentColor" x2="-6"></line><text fill="currentColor" x="-9" dy="0.32em" style="font-size: 12px;">0.00%</text></g><g class="tick" opacity="1" transform="translate(0,263)"><line stroke="currentColor" x2="-6"></line><text fill="currentColor" x="-9" dy="0.32em" style="font-size: 12px;">0.50%</text></g><g class="tick" opacity="1" transform="translate(0,225.5)"><line stroke="currentColor" x2="-6"></line><text fill="currentColor" x="-9" dy="0.32em" style="font-size: 12px;">1.00%</text></g><g class="tick" opacity="1" transform="translate(0,188)"><line stroke="currentColor" x2="-6"></line><text fill="currentColor" x="-9" dy="0.32em" style="font-size: 12px;">1.50%</text></g><g class="tick" opacity="1" transform="translate(0,150.5)"><line stroke="currentColor" x2="-6"></line><text fill="currentColor" x="-9" dy="0.32em" style="font-size: 12px;">2.00%</text></g><g class="tick" opacity="1" transform="translate(0,113)"><line stroke="currentColor" x2="-6"></line><text fill="currentColor" x="-9" dy="0.32em" style="font-size: 12px;">2.50%</text></g><g class="tick" opacity="1" transform="translate(0,75.5)"><line stroke="currentColor" x2="-6"></line><text fill="currentColor" x="-9" dy="0.32em" style="font-size: 12px;">3.00%</text></g><g class="tick" opacity="1" transform="translate(0,37.999999999999964)"><line stroke="currentColor" x2="-6"></line><text fill="currentColor" x="-9" dy="0.32em" style="font-size: 12px;">3.50%</text></g><g class="tick" opacity="1" transform="translate(0,0.5)"><line stroke="currentColor" x2="-6"></line><text fill="currentColor" x="-9" dy="0.32em" style="font-size: 12px;">4.00%</text></g></g><g class="grid-lines" fill="none" font-size="10" font-family="sans-serif" text-anchor="end"><path class="domain" stroke="currentColor" d="M410,300.5H0.5V0.5H410"></path><g class="tick" opacity="1" transform="translate(0,300.5)"><line stroke="currentColor" x2="410" style="stroke: #ccc; fill: none;"></line></g><g class="tick" opacity="1" transform="translate(0,263)"><line stroke="currentColor" x2="410" style="stroke: #ccc; fill: none;"></line></g><g class="tick" opacity="1" transform="translate(0,225.5)"><line stroke="currentColor" x2="410" style="stroke: #ccc; fill: none;"></line></g><g class="tick" opacity="1" transform="translate(0,188)"><line stroke="currentColor" x2="410" style="stroke: #ccc; fill: none;"></line></g><g class="tick" opacity="1" transform="translate(0,150.5)"><line stroke="currentColor" x2="410" style="stroke: #ccc; fill: none;"></line></g><g class="tick" opacity="1" transform="translate(0,113)"><line stroke="currentColor" x2="410" style="stroke: #ccc; fill: none;"></line></g><g class="tick" opacity="1" transform="translate(0,75.5)"><line stroke="currentColor" x2="410" style="stroke: #ccc; fill: none;"></line></g><g class="tick" opacity="1" transform="translate(0,37.999999999999964)"><line stroke="currentColor" x2="410" style="stroke: #ccc; fill: none;"></line></g><g class="tick" opacity="1" transform="translate(0,0.5)"><line stroke="currentColor" x2="410" style="stroke: #ccc; fill: none;"></line></g></g><g class="lines"><path class="line" d="M2.221,300L4.371,300L6.595,300L8.745,300L10.966,300L13.187,300L15.193,300L17.412,300L19.561,300L21.783,300L23.932,300L26.153,300L28.375,300L30.524,300L32.749,300L34.898,300L37.119,300L39.341,300L41.347,300L43.565,300L45.715,300L47.936,300L50.086,300L52.307,300L54.528,300L56.678,300L58.902,300L61.052,300L63.273,300L65.494,300L67.5,300L69.719,300L71.868,300L74.089,300L76.239,300L78.46,299.929L80.682,300L82.831,300L85.055,300L87.205,300L89.426,300L91.648,300L93.725,300L95.944,300L98.093,300L100.315,300L102.464,300L104.685,300L106.907,299.943L109.056,300L111.281,299.898L113.43,300L115.651,300L117.873,300L119.879,300L122.097,300L124.247,299.955L126.468,300L128.618,299.957L130.839,300L133.06,299.954L135.21,299.959L137.434,300L139.584,300L141.805,300L144.026,299.96L146.032,299.964L148.251,300L150.4,300L152.621,299.953L154.771,299.957L156.992,299.907L159.214,299.954L161.363,300L163.587,300L165.737,300L167.958,300L170.179,300L172.186,300L174.404,299.92L176.554,300L178.775,300L180.925,300L183.146,299.958L185.367,300L187.517,300L189.741,299.83L191.89,300L194.112,299.958L196.333,299.96L198.411,300L200.629,300L202.779,300L205,299.959L207.15,299.957L209.371,300L211.592,299.956L213.742,300L215.966,299.827L218.116,299.159L220.337,299.056L222.558,299.437L224.564,299.436L226.783,298.939L228.932,296.221L231.153,296.129L233.303,296.541L235.524,296.111L237.746,296.398L239.895,295.766L242.119,296.051L244.269,295.617L246.49,295.837L248.711,294.896L250.718,279.99L252.936,276.845L255.086,271.692L257.307,268.856L259.456,265.691L261.678,260.806L263.899,257.785L266.049,259.175L268.273,260.498L270.422,243.301L272.644,231.357L274.865,233.185L276.871,232.582L279.089,229.586L281.239,221.085L283.46,219.844L285.61,212.901L287.831,196.464L290.052,197.956L292.202,208.174L294.426,204.686L296.576,176.605L298.797,180.203L301.018,184.001L303.096,177.799L305.315,158.275L307.464,146.456L309.685,144.198L311.835,150.484L314.056,129.754L316.278,140.178L318.427,132.256L320.651,135.323L322.801,131.72L325.022,132.282L327.243,130.706L329.25,113.331L331.468,115.043L333.618,97.607L335.839,96.334L337.988,105.076L340.21,96.251L342.431,83.598L344.581,106.9L346.805,119.58L348.954,107.51L351.176,89.4L353.397,74.076L355.403,74.719L357.621,99.8L359.771,86.288L361.992,80.454L364.142,72.545L366.363,55.309L368.584,73.754L370.734,79.374L372.958,75.205L375.108,73.271L377.329,63.407L379.55,77.805L381.557,83.451L383.775,84.175L385.925,77.343L388.146,81.021L390.295,69.531L392.517,63.303L394.738,66.891L396.887,71.922L399.112,80.669L401.261,52.759L403.483,59.587L405.704,78.551L407.782,66.61L410,96.542" data-legend="flutter" style="stroke: rgb(31, 119, 180); fill: none;"></path><path class="line" d="M2.221,300L4.371,300L6.595,300L8.745,300L10.966,300L13.187,300L15.193,300L17.412,300L19.561,300L21.783,300L23.932,300L26.153,300L28.375,300L30.524,300L32.749,300L34.898,300L37.119,300L39.341,300L41.347,300L43.565,300L45.715,300L47.936,300L50.086,300L52.307,300L54.528,300L56.678,300L58.902,300L61.052,300L63.273,300L65.494,300L67.5,300L69.719,300L71.868,300L74.089,300L76.239,300L78.46,300L80.682,300L82.831,300L85.055,300L87.205,300L89.426,300L91.648,300L93.725,300L95.944,300L98.093,300L100.315,300L102.464,300L104.685,300L106.907,300L109.056,300L111.281,300L113.43,300L115.651,300L117.873,300L119.879,300L122.097,299.956L124.247,300L126.468,300L128.618,300L130.839,300L133.06,300L135.21,300L137.434,300L139.584,300L141.805,300L144.026,300L146.032,300L148.251,300L150.4,300L152.621,300L154.771,300L156.992,300L159.214,300L161.363,300L163.587,300L165.737,300L167.958,300L170.179,300L172.186,297.326L174.404,295.411L176.554,295.679L178.775,296.98L180.925,296.209L183.146,296.083L185.367,292.729L187.517,289.938L189.741,285.788L191.89,284.04L194.112,283.998L196.333,282.808L198.411,282.057L200.629,282.222L202.779,277.134L205,276.372L207.15,271.308L209.371,269.362L211.592,271.987L213.742,274.271L215.966,273.396L218.116,270.244L220.337,265.9L222.558,267.541L224.564,260.806L226.783,259.038L228.932,253.759L231.153,250.531L233.303,246.002L235.524,246.45L237.746,245.179L239.895,241.927L242.119,240.046L244.269,236.601L246.49,230.554L248.711,238.705L250.718,234.967L252.936,231.468L255.086,229.524L257.307,226.641L259.456,222.625L261.678,225.455L263.899,214.357L266.049,221.195L268.273,224.605L270.422,218.319L272.644,210.514L274.865,210.723L276.871,217.406L279.089,217.031L281.239,222.343L283.46,208.801L285.61,202.821L287.831,194.687L290.052,207.531L292.202,208.473L294.426,205.917L296.576,206.78L298.797,202.38L301.018,204.111L303.096,210.259L305.315,201.461L307.464,203.674L309.685,202.85L311.835,198.097L314.056,202.285L316.278,201.103L318.427,203.274L320.651,204.951L322.801,207.103L325.022,199.206L327.243,204.595L329.25,208.657L331.468,204.477L333.618,206.431L335.839,202.525L337.988,201.713L340.21,204.403L342.431,198.958L344.581,205.394L346.805,213.958L348.954,207.44L351.176,193.81L353.397,202.633L355.403,201.014L357.621,208.247L359.771,208.53L361.992,205.491L364.142,204.208L366.363,204.123L368.584,203.132L370.734,205.334L372.958,202.218L375.108,187.26L377.329,202.57L379.55,195.168L381.557,208.817L383.775,211.605L385.925,198.976L388.146,190.236L390.295,186.828L392.517,184.993L394.738,180.858L396.887,188.406L399.112,193.203L401.261,192.66L403.483,189.516L405.704,194.875L407.782,185.867L410,191.2" data-legend="react-native" style="stroke: rgb(255, 127, 14); fill: none;"></path></g></g><g transform="translate(20, 150)"><text font-family="sans-serif" transform="rotate(-90)" x="-50" y="0" dy="1em" class="axis-label y-axis-label" style="text-anchor: middle; font-weight: bold;">% of Stack Overflow questions that month</text></g><g font-family="sans-serif" class="legend" transform="translate(530, 20)" style="font-size: 12px;"><rect y="0" width="10" height="10" style="fill: rgb(31, 119, 180);"></rect><rect y="15" width="10" height="10" style="fill: rgb(255, 127, 14);"></rect><text font-size="10px" x="13" y="5" text-anchor="left">flutter</text><text font-size="10px" x="13" y="20" text-anchor="left">react-native</text></g></svg>